<?xml version="1.0" standalone="no"?>
<!DOCTYPE svg PUBLIC "-//W3C//DTD SVG 20010904//EN"
 "http://www.w3.org/TR/2001/REC-SVG-20010904/DTD/svg10.dtd">
<svg version="1.0" xmlns="http://www.w3.org/2000/svg"
 width="630.000000pt" height="630.000000pt" viewBox="0 0 630.000000 630.000000"
 preserveAspectRatio="xMidYMid meet">
<metadata>
Created by potrace 1.14, written by Peter Selinger 2001-2017
</metadata>
<g transform="translate(0.000000,630.000000) scale(0.100000,-0.100000)"
fill="#000000" stroke="none">
<path d="M2989 6292 c-8 -2 -32 -13 -54 -24 -40 -21 -121 -48 -140 -48 -14 1
34 40 49 40 6 0 20 7 31 16 18 14 15 14 -42 10 -68 -6 -125 -35 -178 -90 -46
-49 -101 -146 -125 -221 -7 -22 -16 -45 -21 -51 -5 -6 -6 -13 -3 -17 3 -3 2
-13 -3 -22 -8 -14 -15 -6 -37 40 -29 58 -36 112 -22 155 8 22 7 23 -7 11 -9
-7 -14 -17 -11 -22 3 -5 1 -9 -4 -9 -9 0 -8 -67 2 -115 6 -29 6 -29 -5 -5 -9
21 -44 167 -47 193 0 5 -2 11 -5 13 -5 6 0 -221 6 -259 2 -16 1 -25 -4 -20
-20 21 -60 116 -65 157 -4 26 -10 48 -13 50 -5 4 -5 -28 0 -124 3 -45 23 -94
51 -119 l21 -20 -24 5 c-13 4 -50 8 -81 10 -44 2 -62 -2 -81 -16 -27 -21 -41
-67 -24 -77 6 -3 7 -1 3 5 -4 7 4 23 18 37 21 21 32 24 72 20 59 -6 69 -14 17
-13 -51 0 -83 -17 -83 -45 0 -12 -10 -31 -23 -42 -13 -11 -33 -35 -45 -52 -18
-26 -21 -37 -12 -53 9 -17 5 -25 -29 -55 -73 -66 -105 -165 -85 -259 35 -159
95 -285 178 -373 47 -50 56 -39 27 31 -25 61 17 36 72 -44 17 -24 37 -52 45
-60 23 -27 64 -100 56 -100 -4 0 -33 20 -63 44 -68 53 -121 81 -132 69 -4 -4
-10 -19 -13 -33 -3 -14 -10 -41 -16 -60 -22 -67 -20 -166 5 -254 13 -44 26
-99 30 -121 4 -22 9 -53 12 -70 5 -34 77 -181 102 -209 17 -19 65 -47 78 -45
5 0 14 5 21 11 6 6 12 7 13 2 7 -89 24 -158 49 -201 11 -18 16 -33 11 -33 -5
0 -43 -22 -85 -50 -80 -52 -201 -166 -232 -219 -12 -21 -26 -31 -44 -32 -14 0
-32 -2 -40 -4 -18 -4 -61 -12 -110 -20 -19 -3 -53 -10 -75 -16 -22 -5 -51 -11
-65 -14 -37 -6 -139 -31 -190 -47 -25 -8 -49 -16 -55 -17 -5 -2 -19 -7 -30
-11 -11 -4 -36 -11 -55 -15 -19 -4 -39 -11 -45 -14 -5 -4 -32 -16 -60 -26
-168 -60 -354 -171 -464 -275 -86 -83 -171 -216 -185 -291 -3 -13 -5 -25 -7
-26 -1 -2 -3 -7 -4 -13 -1 -5 -4 -12 -5 -15 -1 -3 -3 -9 -4 -14 0 -5 -4 -13
-8 -17 -5 -4 -8 -14 -8 -21 0 -32 -135 -370 -236 -591 -13 -29 -24 -55 -24
-57 0 -2 -14 -35 -31 -72 -53 -116 -57 -125 -104 -242 -117 -287 -242 -656
-251 -741 -4 -34 -6 -98 -18 -693 l-6 -277 2895 0 c1592 0 2895 2 2895 4 0 2
-13 33 -28 68 -16 34 -43 110 -61 168 -18 58 -35 112 -39 120 -3 8 -7 20 -8
25 -1 6 -3 12 -4 15 -1 3 -3 12 -5 20 -2 8 -9 31 -14 50 -22 79 -93 361 -112
445 -25 107 -58 260 -65 295 -3 14 -7 33 -10 42 -3 10 -7 30 -10 45 -2 16 -7
39 -10 53 -22 95 -16 91 51 -35 26 -49 61 -114 77 -143 16 -29 55 -103 86
-165 31 -62 60 -113 64 -115 5 -2 8 -8 8 -13 0 -4 47 -106 105 -224 58 -119
105 -222 105 -229 0 -6 4 -16 9 -21 16 -16 118 -284 132 -347 l14 -58 90 0 91
0 -1 1332 0 1333 -27 51 c-53 101 -197 267 -308 354 -53 42 -61 51 -88 109
-14 31 -29 58 -32 61 -3 3 -17 23 -30 45 -28 46 -67 92 -124 144 -21 20 -44
41 -50 46 -86 82 -392 219 -537 240 -24 4 -47 8 -50 11 -9 5 -82 16 -209 30
-69 8 -252 11 -264 5 -5 -2 -40 -6 -78 -8 -56 -3 -74 0 -96 15 -24 17 -135 63
-147 61 -13 -2 -85 13 -85 18 0 3 7 28 14 56 17 60 28 114 27 141 0 10 16 53
35 95 70 151 94 214 111 301 9 42 9 183 0 224 -4 21 -8 55 -9 75 0 20 -5 41
-10 48 -12 15 -56 2 -95 -26 -34 -25 -63 -19 -64 13 -1 26 -1 135 0 159 1 25
17 21 18 -5 6 -152 16 -180 28 -79 4 30 9 63 11 75 2 12 6 37 9 56 3 19 7 46
10 60 3 14 7 39 10 55 6 43 16 104 24 150 11 62 6 244 -9 305 -16 70 -54 145
-94 190 -17 19 -42 57 -55 83 -13 26 -47 68 -75 92 -28 25 -58 51 -66 59 -8 7
-26 28 -40 45 -55 72 -206 160 -340 200 -110 33 -108 32 -85 41 11 4 32 5 47
3 14 -2 29 1 32 6 4 5 -2 10 -11 10 -118 1 -272 0 -288 -3 -11 -2 -34 2 -51 9
-29 12 -210 17 -245 7z m955 -301 c4 -5 -3 -7 -14 -4 -23 6 -26 13 -6 13 8 0
17 -4 20 -9z m-1470 -657 c5 -14 4 -15 -9 -4 -17 14 -19 20 -6 20 5 0 12 -7
15 -16z m-773 -3806 c11 -40 22 -80 24 -88 23 -87 77 -289 80 -302 8 -28 13
-48 35 -128 11 -41 25 -92 29 -112 l9 -38 -23 18 c-49 39 -157 10 -276 -74
-55 -39 -62 -40 -80 -18 -10 13 -10 24 0 62 12 46 60 162 71 172 3 3 6 11 8
19 2 8 12 27 24 43 11 16 21 36 23 46 2 9 4 17 5 17 2 0 5 14 14 54 6 24 -18
81 -39 93 -7 4 -11 18 -10 30 12 101 18 138 27 168 15 49 50 122 55 116 3 -2
13 -37 24 -78z"/>
</g>
</svg>
