<svg id="Capa_1" data-name="Capa 1" xmlns="http://www.w3.org/2000/svg" viewBox="0 0 625.39 629.97"><defs><style>.cls-1{fill:#efecea;}.cls-2{fill:#cecece;}.cls-3{fill:#353d44;}.cls-4{fill:#fed9b7;}.cls-5{fill:#fbc4ab;}.cls-6{fill:#fff;}.cls-7{fill:#603f2c;}.cls-8{fill:#343a40;}.cls-9{fill:#e5c6b1;}.cls-10{fill:#968171;}.cls-11{fill:#d3b69f;}.cls-12{fill:#c9b1a1;}.cls-13{fill:#f2ccad;}.cls-14{fill:#c4ced6;}.cls-15{fill:#e2ccbc;}.cls-16{fill:#d3a492;}.cls-17{fill:#ffe2ca;}.cls-18{fill:#efccaf;}.cls-19,.cls-24{fill:none;}.cls-20{fill:#b2b1b1;}.cls-21{fill:#d6d5d4;}.cls-22{fill:#444e56;}.cls-23{fill:#6a7882;}.cls-24{stroke:#eab6a2;stroke-miterlimit:10;}</style></defs><path class="cls-1" d="M1205,594.75c-26-68-126-64.21-126-64.21L838,552.75s-128,12-147,75-42,90-69,181L620,907h578.73c-17.4-34.55-38.73-144.25-38.73-144.25s62.26,111.59,66.8,144.25H1245V651.25C1250,628.75,1205,594.75,1205,594.75ZM806.15,821.65c-8.76-13.08-34.31,7.79-34.31,7.79-14.49,4.29,8.19-34.33,8.19-34.33,6.3-15-2.52-17.17-2.52-17.17,0-22.53,8.19-32.19,8.19-32.19s14.23,54,20.45,75.9a16.06,16.06,0,0,1,2.24,5.65C809.82,834,808.61,830.33,806.15,821.65Z" transform="translate(-620 -277.03)"/><path class="cls-2" d="M864.4,523.77s-96,43.16,2.18,134.13S1093,638.25,1078.94,554.52c0,0-15.19-29.45-43.66-30.75S864.4,523.77,864.4,523.77Z" transform="translate(-620 -277.03)"/><path class="cls-3" d="M924.11,798.49c10-5,16.58-50.12,16.58-50.12s9.09-5.39,8.48-3.72c-2.76,7.53-4.35,20.43-2.64,21.89s7.11,1.57,7.77.34.05-27.94-1.23-29-11.61,4.44-11.61,4.44,5.34-22.25-.7-28.56c-4.11-4.29-15.68-2.28-32,1.51a203.86,203.86,0,0,0-26,7.59s2.84-14.9-3-18.94-42.87,14.14-47,20.21-3.27,14.8,4.41,18.06S871,708.8,875.15,709.94c5.65,1.53-4.54,17.67-4.54,17.67s-10.24,3.71-13.94,6.28-8.83,9.13-5.43,8.74c4.1-.46,16.48-7.27,16.48-7.27s-14.9,25.35-13.89,31.81,5,15.13,14.25,13.68,14.73-47.79,14.54-52.4c7-6.16,44-18.5,51.94-13,4.82,3.38-7,33-7,33s-8.49,4.86-14.55,5.34c-6.83.53-7.69,9.55-5.55,10.48,4.6,2,18.61-8.92,18.61-8.92s-10.46,23.93-12,28.15C912.09,788.71,918,801.57,924.11,798.49Z" transform="translate(-620 -277.03)"/><path class="cls-3" d="M901,726.74c-5.51-1.6-11.08,3.71-13.19,9.14s-1.52,14.36,3.6,17.66,10.45-2.46,13.76-8.56S906.6,728.39,901,726.74Zm2.36,15.07c-.85,2.93-3.38,7.27-5.38,6.27s-.82-8.09-.55-10.59,1.85-8.26,4.92-7.34S904.17,738.89,903.31,741.81Z" transform="translate(-620 -277.03)"/><path class="cls-3" d="M914,745.44c5.12,3.3,10.46-2.46,13.77-8.57s1.47-16.59-4.17-18.23-11.09,3.71-13.19,9.13S908.86,742.14,914,745.44Zm6-16.06c.27-2.5,1.85-8.26,4.93-7.34s1.86,8.74,1,11.67-3.39,7.27-5.39,6.26S919.74,731.89,920,729.38Z" transform="translate(-620 -277.03)"/><path class="cls-3" d="M1077.49,712.67c-1.81-2.12-3.19-6.22-5.72-5s-.58,4.1-.58,4.1-2.47,9.43-6.56,14.79-7.15,6.26-7,1.09,5.67-11,4.7-14-5.43-4.82-15.54,1.45a1.25,1.25,0,0,0-2.07-.91c-1.81,1-2.69,3.25-1.84,3.92,0,0-8.62,21.1-14.78,21.08s2.34-18.7,4.44-19.45,3.55,8.18-7.19,15.69c-.37.26-.41,2.11.27,1.72,5-3,10.6-7.35,12.33-17.46,1.23-7.25-10-5.94-14.55,1.48s-5.93,14.05-5.6,17.7c0,0-3,4.65-4.64,3.43s-3.48-6.48.62-19.62,8.82-25.47,6.72-27.85-7.38,1.65-8.78,5.32-6.11,34.87-6,38.36a15,15,0,0,0,.54,4.69s-3.6,5.68-6.54,4.18-1.22-7.77-.19-10.61,2.7-9.5-.25-11-9.85,3.14-10.49,3.8c0,0,6.7-21.68,6.78-25.88s-3.84-4.08-7.12.13-8.13,37.74-8.49,46.42,1.17,7.45,2.29,6.78,4.41-17.44,5.48-20.07,3.44-7.93,5.26-5.76-2.81,13.5-2.32,16.63.58,6.07,5.52,4.55c0,0,8.51-3.06,11.11-7.65,0,0,7.5,3,10.87-4.54,0,0,1.42,4.33,6.95,3.47,8-1.26,14-8,20.43-25.87,0,0-.15-.1,1.45-.85s3.19-2.47,4.3-1.66-1.58,4.81-3.59,9.31-3.31,13.46,4.06,13.29,19.55-8.86,21.47-19.39a24.62,24.62,0,0,0,1.78,4.28c.81,1.23,6,13.23,5.43,15.78s-4.79-4.45-55.52,7.17c-35.75,8.19-51.59,18.78-51.59,18.78s3.62-29.43,4.44-32.88-2.32-2.23-2.65-1.19a18.5,18.5,0,0,1-1.73,3.11s-5.29-3.86-8.26-2.4-10.49,16.42-6,26.07,10.78,2.75,10.78,2.75l-1.83,7.67s-21,11.68-32.39,34.9-1,38.09,8.78,36.56c12.42-1.94,22.52-16.09,26-40.79s2.87-29.45,2.87-29.45,14.59-11.28,52.4-20.36c40.17-9.65,53.3-.54,62-2.08,4.1-.74,5.85-5.9,4.87-11.36C1091.24,727.58,1079.3,714.79,1077.49,712.67Zm-120.72,94c-5.36,9.84-12.06,23.7-17.23,18.23s-.13-17.35,2.55-23.07,14.18-21.07,25.07-29.43C967.16,772.42,962.12,796.86,956.77,806.69Zm10.7-50.34c-1.73-.84-1.35-8.66-.25-13.39S971,733.49,973,736l-2.74,18.66S969.21,757.19,967.47,756.35Z" transform="translate(-620 -277.03)"/><path class="cls-3" d="M945.35,735c.73,1.37,3.6,1.26,6.42-.24s4.52-3.82,3.79-5.19-3.6-1.25-6.42.25S944.63,733.64,945.35,735Z" transform="translate(-620 -277.03)"/><path class="cls-3" d="M997.65,713.92c-.37-.64,2.27-2.82,14.29-7.91s23.79-10.13,27.32-11.18.37,2.41-13.12,7.48S998,714.57,997.65,713.92Z" transform="translate(-620 -277.03)"/><path class="cls-4" d="M978,657.23S1002,628,1005,618s8-52,5-68-128-3-128-3-1.66,25.69,9.17,57.84c0,0,28.61,49,27.72,56.56,0,0,27.11,36.6,59.11-3.4" transform="translate(-620 -277.03)"/><path class="cls-2" d="M880.68,660.5C877.27,674.2,887.5,748,893.19,748s-4.55,12.65,9.1,68.52,19.33,21.09,18.19,4.22-12.51-77-12.51-77-5.68-73.79-10.23-75.9S880.68,660.5,880.68,660.5Z" transform="translate(-620 -277.03)"/><path class="cls-2" d="M1028.5,657.5s11,92,9,98,1,49,3,51,7,63,4,63-22,14-20-25-8-53-5-67-10-109-3-114" transform="translate(-620 -277.03)"/><path class="cls-5" d="M1132.64,431.66" transform="translate(-620 -277.03)"/><path class="cls-5" d="M1035.29,432.07S1037,434,1040,431s8-4,9.51-3,.49,9,1.49,10,1,17,1,20c0,5.39-3.74,17.47-5,20-1,2-8.85,21-8.93,19.5s-4.29-65.42-4.29-65.42Z" transform="translate(-620 -277.03)"/><path class="cls-5" d="M852.71,433.57S834.53,418,834.26,423,827,438,831,453s3,10.17,3.52,11.08S836,482.79,841,486.89c0,0,6,18.11,16,14.11l-1-65Z" transform="translate(-620 -277.03)"/><path class="cls-4" d="M862.46,371.22c-7-1,9-37.72,52.77-37.72s75.46-4.4,103.43,33.54c0,0,11.05,15.1,8.07,19.07s9-1,7,26.8,6,51.62,4,76.44-15.09,48.51-15.93,49.64c-6,7.94-32.85,27.79-38.83,30.77a77.28,77.28,0,0,1-41.81,7.94c-22.9-2-67.7-35.74-71.68-48.64s-15.93-43.68-14.93-54.6-1.11-55.59-.06-63,1-16.38,4-22.34S869.43,372.21,862.46,371.22Z" transform="translate(-620 -277.03)"/><path class="cls-6" d="M912.54,419.27a8,8,0,0,1-2.15,12.22,36.13,36.13,0,0,0,15.11-5A29.86,29.86,0,0,0,912.54,419.27Z" transform="translate(-620 -277.03)"/><path class="cls-6" d="M898.5,424.5a8,8,0,0,1,1.27-4.31,24.48,24.48,0,0,0-8.27,5.31,23.5,23.5,0,0,0,10,5.24A8,8,0,0,1,898.5,424.5Z" transform="translate(-620 -277.03)"/><path class="cls-6" d="M982.15,424.5a8,8,0,0,1,.9-3.67,33.91,33.91,0,0,0-10,6.23,38.75,38.75,0,0,0,14.24,4.86A8,8,0,0,1,982.15,424.5Z" transform="translate(-620 -277.03)"/><path class="cls-6" d="M998.37,424.5a8,8,0,0,1-5.51,7.57,25.58,25.58,0,0,0,15.14-6,25.5,25.5,0,0,0-11.08-6.12A7.9,7.9,0,0,1,998.37,424.5Z" transform="translate(-620 -277.03)"/><path class="cls-3" d="M1036.5,456.5c2,29-26,58-29.5,54.46-4.4-4.45-8.8-8.51-11.79-11.19a26.92,26.92,0,0,0-8.87-5.35c-18.74-6.76-38.84-5.92-38.84-5.92s-37,1-43,18c-4.27,12.09-13.08,10-17.82,7.81a40.48,40.48,0,0,0-6.16-2.15c-17.07-4.83-26-57.66-26-57.66a26,26,0,0,0-.74,6.63c.74,21.37,4.74,51.37,7.74,57.37,3.85,7.69,22,39.19,36,47.59s43,19.41,54,16.41,38-12,48-20,31-29,35.12-47.56C1042.74,478.32,1036.5,456.5,1036.5,456.5Z" transform="translate(-620 -277.03)"/><path class="cls-4" d="M965.5,538.5c12,14,31-18,23-29s-39-12-39-12-30,3.33-35,15.16-2.22,17.64,4.39,22.74c6.14,4.74,22.1,13.7,24.35-4.26.88-7,9-10.68,14.57-6.23.23.19.46.38.69.59Z" transform="translate(-620 -277.03)"/><path class="cls-5" d="M949.71,521c-7.16.19-22.34-4.54-29.45-6.91a1.93,1.93,0,0,1-.42-3.5c6.84-4.13,22.16-12.06,29.34-5.09a2.1,2.1,0,0,0,2.79.12c3.37-2.83,13-7.76,33,2.78a1.93,1.93,0,0,1-.28,3.56C976.5,514.77,958.22,520.78,949.71,521Z" transform="translate(-620 -277.03)"/><path class="cls-7" d="M998,425a7.94,7.94,0,0,0-2-5.23,21.2,21.2,0,0,0-12.77.92A8,8,0,0,0,985,431.24a26.66,26.66,0,0,0,8.89.75A8,8,0,0,0,998,425Z" transform="translate(-620 -277.03)"/><path class="cls-7" d="M914.23,424.12a8,8,0,0,0-1.43-4.56,22.07,22.07,0,0,0-13.67.89,8,8,0,0,0,4.13,11.09,29,29,0,0,0,5.54.15A8,8,0,0,0,914.23,424.12Z" transform="translate(-620 -277.03)"/><path class="cls-5" d="M841,423" transform="translate(-620 -277.03)"/><path class="cls-8" d="M921.5,391.5a43.18,43.18,0,0,1,10,0c3.92.49,5.18,1.26,6,2,2.22,2,3.39,5.94,2,8s-5.39,1.87-16,0c-13.86-2.44-15.28-3.4-20-4-17.09-2.17-30.43,6.43-31,5-.23-.58,2.13-1.67,12-8,6-3.85,6.84-4.55,9-5,4.43-.92,5.47,1.07,13,2A72.21,72.21,0,0,0,921.5,391.5Z" transform="translate(-620 -277.03)"/><path class="cls-8" d="M995.5,399.5c-16.07,0-15.34-.07-16,0a63.94,63.94,0,0,1-13,0c-4.28-.43-5.69-1-6-2-.48-1.5,1.61-3.95,4-5,4-1.75,6.51,1.32,13,2,4.71.5,4.43-1,14-2,5.65-.59,9.38-.95,14,0,6,1.22,12.34,4.41,12,6C1017.32,399.35,1015.26,399.48,995.5,399.5Z" transform="translate(-620 -277.03)"/><path class="cls-9" d="M963,464c3.1-.87,4.32-8.69,3-15-.86-4.12-2-3.86-3-8-1.72-7.32,1.52-9.84,0-16-1.34-5.42-5.61-10.58-8-10-2.22.54-2.53,6-3,16-1,20.18,2.13,25.49,4,28C956.74,460,960.28,464.76,963,464Z" transform="translate(-620 -277.03)"/><path class="cls-10" d="M939,476a6.27,6.27,0,0,0-4,2c-.57.68-1.52,2.19-1,3,.61,1,3,.45,5,0s7-1.55,7-3C946,476.76,942.18,475.51,939,476Z" transform="translate(-620 -277.03)"/><path class="cls-10" d="M968,480c.54-1.36-2.5-4.88-6-5-4.21-.14-7.7,4.69-7,6,.23.44.88.35,6,0C966.94,480.59,967.77,480.59,968,480Z" transform="translate(-620 -277.03)"/><path class="cls-4" d="M971,461c.48-.46,2.57.76,4,2,4.29,3.72,5.1,9.76,4,14-.17.66-.52,2-1,2-.89,0-.76-4.54-3-10C973,464.18,970.4,461.58,971,461Z" transform="translate(-620 -277.03)"/><path class="cls-11" d="M950,480c-.6-.64,1.7-4.83,4.41-8,2.3-2.69,3.9-4.56,6.18-5,6.36-1.22,13.2,9.73,12.35,11-.55.81-4.71-1.66-5.3-2-3.78-2.24-4.24-4.06-6.17-4-1.45,0-1.79,1.08-5.3,4C954.09,477.73,950.59,480.64,950,480Z" transform="translate(-620 -277.03)"/><path class="cls-12" d="M890,429c-.52.63,2.24,4.38,6,7a23.31,23.31,0,0,0,14,4c5.23-.25,8.88-2.27,12-4,.87-.48,4.25-2.36,4-3-.32-.82-5.9,1.88-14,2a37.22,37.22,0,0,1-13-2C893.44,431.06,890.48,428.41,890,429Z" transform="translate(-620 -277.03)"/><path class="cls-12" d="M971,432c-.27.76,6,4.19,13,6,3.28.85,6.64,1.68,11,1a21,21,0,0,0,8-3,14.94,14.94,0,0,0,5-5c.46-.78,1.48-2.51,1-3s-2.44.92-7,3a36.14,36.14,0,0,1-5,2,27.25,27.25,0,0,1-8,1,67.6,67.6,0,0,1-10-1C972.62,432.1,971.13,431.64,971,432Z" transform="translate(-620 -277.03)"/><path class="cls-13" d="M1028,385c-6.26-15.85-18.67-25.52-22-28-9.64-7.19-18-10-30-14a181,181,0,0,0-39-8c-14.2-1.42-36.51-2.16-37,1-.36,2.33,11.24,6,24,10,16.46,5.18,19.7,4.73,37,10,11.35,3.46,18.39,6.23,28,10,10.46,4.11,14.64,6.19,19,9a76.15,76.15,0,0,1,14,11c4.56,4.63,7.08,8.5,8,8S1029.23,388.11,1028,385Z" transform="translate(-620 -277.03)"/><path class="cls-13" d="M1019,424c.57,3.52,2.79,4.61,6,9,5.59,7.63,6.11,14.2,7,14,.59-.13.44-3-2-23-.27-2.19-1.18-8.46-3-21-.93-6.38-1.47-10-2-10-.88,0,1.46,10-3,21C1020.24,418.36,1018.42,420.4,1019,424Z" transform="translate(-620 -277.03)"/><path class="cls-3" d="M1031.5,330.5c-7-19-23-23-23-23-1-3,6,2,6,2-16-22-48-27-48-27-3-2,11-2,11-2-3-3-35-1-35-1-8-8-45,6-45,6-3-2,10-7,10-7-31-5-40,42-40,42s-12-18-3-24c0,0-7,1-5,11l2,11s-9-24-6-35c1-10-4.72,27.73,1,39a36.73,36.73,0,0,1-9-28.92c-1.55,9.28-3.24,28.42,8,32.92,0,0-28.87-9.95-22,10.87-3.78,3.47-9.72,10-4,12.13,0,0-15,10-14,26,0,0,5,32,23,45h.94c-13.06-31,16.06,14,16.06,14-4-31,5-40,5-40,12-11,3-21,3-21-1-33,39-38,39-38,47-8,83,9,83,9,30,6,44,48,44,48,6-4,6,40,7,37s8-47,8-47C1049.5,341.5,1031.5,330.5,1031.5,330.5Zm-198,6.94s0,0,0,.06Zm2.59-2.31s-1.14.89-2.61,2.24c-.41-1.47-3.82-15.46,17-7.87C850.5,329.5,832.65,325.75,836.07,335.13Z" transform="translate(-620 -277.03)"/><path class="cls-3" d="M847.49,293.58c.51-3.08,1-5.08,1-5.08A28.19,28.19,0,0,0,847.49,293.58Z" transform="translate(-620 -277.03)"/><circle class="cls-3" cx="286.5" cy="147.47" r="3.5"/><circle class="cls-3" cx="370.5" cy="147.47" r="3.5"/><path class="cls-14" d="M902,421c-.46-.23-1.66.75-2,2-.4,1.47.47,3,1,3C901.9,426,902.83,421.41,902,421Z" transform="translate(-620 -277.03)"/><path class="cls-14" d="M986.08,420.86c-.46-.23-1.66.75-2,2-.4,1.48.47,3,1,3C986,425.82,986.91,421.28,986.08,420.86Z" transform="translate(-620 -277.03)"/><path class="cls-12" d="M928.5,419.08a.31.31,0,0,1-.12-.16C923.55,408,914.66,403,904,403c-8.19,0-14.41,8.48-16.89,12.5-.29.47.38.95.86.61,4.1-2.84,13.27-8.9,17-8.9,6.9,0,7.8,0,20.5,10C939.77,428.51,929.51,419.93,928.5,419.08Z" transform="translate(-620 -277.03)"/><path class="cls-15" d="M926,423.78C906,388.4,887,425,887,425s22.45-22.37,37.08-1.43Z" transform="translate(-620 -277.03)"/><path class="cls-12" d="M969,422c17-27,43-4,43-4-31-31-44.47,4.66-44.47,4.66Z" transform="translate(-620 -277.03)"/><path class="cls-15" d="M1011,422s-24-29.74-41.48,3.63c0,0,19.73-22.58,39.61-4.1Z" transform="translate(-620 -277.03)"/><path d="M890.79,425.32c18.29-14.19,35.22,1.06,35.22,1.06-19.48-17.12-34.51-1.65-34.51-1.65" transform="translate(-620 -277.03)"/><path d="M973,426.73" transform="translate(-620 -277.03)"/><path d="M971.5,427.5c20-18,37-1.63,37-1.63-21-17.64-36.09,1.13-36.09,1.13" transform="translate(-620 -277.03)"/><path class="cls-16" d="M831,449c.48,2.39,1.27,2.44,3,6,3.69,7.62,3.3,14,4,14s1.39-4.53,1-10c-.8-11.15-5.71-13.68-4-20,1.32-4.91,5.22-6.86,4-10-.7-1.8-2.87-3.46-4-3-.7.28-.88,1.32-1,2a51.76,51.76,0,0,0-1,9C832.86,443.74,830.06,444.37,831,449Z" transform="translate(-620 -277.03)"/><path class="cls-16" d="M850,478a7.17,7.17,0,0,1-4-3c-1.44-2.19-.39-3.09-1-10-.23-2.65-.55-4.41,0-7a14.51,14.51,0,0,1,1-3c.87-2,1.73-3.93,3-4,1.44-.08,2.65,2.3,3,3a10.48,10.48,0,0,1,1,4c.32,3.3,0,4.63,0,9v5c0,3.61,0,5.43-1,6A2.61,2.61,0,0,1,850,478Z" transform="translate(-620 -277.03)"/><path class="cls-16" d="M1048,431c-1.79,2.32-2.68,3.48-3,4a25.11,25.11,0,0,0-3,6c-1,3.46-.58,6.35,0,10a63.22,63.22,0,0,0,2,8c1.09,3.8,1.48,4.45,2,7,.78,3.83.65,6,1,6s.81-3.63,2-10c1.38-7.42,1.89-7.75,2-11,.12-3.73-.54-3.4-1-10-.44-6.4-.1-10.86-1-11C1048.81,430,1048.65,430.16,1048,431Z" transform="translate(-620 -277.03)"/><path class="cls-16" d="M1038,455c.66-.23,2.18,2.16,3,4,2.68,6,1,13,0,13-.54,0-1-2.32-2-7C1038.29,461.6,1037,455.35,1038,455Z" transform="translate(-620 -277.03)"/><path class="cls-17" d="M946.27,639.61c-73.73-42.39-64-87.92-64-87.92s59.88,37.38,63.81,32.85.35,56.33.35,56.33" transform="translate(-620 -277.03)"/><path class="cls-18" d="M958,602s-4.65,5.49-5.83,2.75-2-20.11,2.92-16.93S958,602,958,602Z" transform="translate(-620 -277.03)"/><path class="cls-17" d="M947.07,587.43s6.62,5.6,1.77,18.09S947.07,587.43,947.07,587.43Z" transform="translate(-620 -277.03)"/><path class="cls-18" d="M952.17,614.6S976,616,976,611s0,14-5,13c0,0,31-12,26-20,0,0,10,5-1,14,0,0,26-45,9-49,0,0-38.19,14-46.6,14,0,0,14.6,0,13.6,3Z" transform="translate(-620 -277.03)"/><path class="cls-19" d="M989.88,589.08" transform="translate(-620 -277.03)"/><path class="cls-18" d="M918.89,650.47s2.89-7.25,0-10.86S888.2,599,890.6,598s24.18,54.07,28.29,57S918.89,650.47,918.89,650.47Z" transform="translate(-620 -277.03)"/><path class="cls-20" d="M867,532s-16,21-8,30c0,0,6,48.72,21,47.36,0,0,7,4.64,7,9.64C887,619,889,530,867,532Z" transform="translate(-620 -277.03)"/><path class="cls-20" d="M865,527s-25,10-30,38-1,54.68,10.51,61.84S875,670,938,679c0,0-74.81-31.8-95.91-71.4,0,0-4.15-42.05,4.61-49.5a27.37,27.37,0,0,0,7-8.49Z" transform="translate(-620 -277.03)"/><path class="cls-20" d="M1051.56,604.81a2.17,2.17,0,0,1,3.26,2.37c-4.16,16.08-12.6,29.34-29.5,53.32-18.69,26.5-77,21.93-77,21.93s7.7-9,13.67-5.73c0,0,18-18.7,23-11.7,0,0,24.85-3,25.93-19.52,0,0,.07-20.48,4.07-17.48,0,0,23.42-91.33,12.21-98.66,0,0-.21-9.37,10.79-5.36,0,0,21.39,49,5.69,81.54l-4.3,5.45a.66.66,0,0,0,.87,1Z" transform="translate(-620 -277.03)"/><path class="cls-2" d="M876,843l52,23s-70-50-103-41l-5,3" transform="translate(-620 -277.03)"/><path class="cls-21" d="M675,706a113.94,113.94,0,0,1,39-18c27.47-6.69,58.23-2.87,59,3,.52,4-12.66,10.35-25,12-15.82,2.12-22.56-4.52-39-5C701,697.77,689.33,699,675,706Z" transform="translate(-620 -277.03)"/><path class="cls-1" d="M1130,620c-11.49,7.34-1,51,6,51,6.73,0,18.07-40.68,5-50C1138.09,618.92,1133.28,617.91,1130,620Z" transform="translate(-620 -277.03)"/><path class="cls-21" d="M1110,705c-9.8,1.93,6.64,160.23,17,160,6-.13,14.07-52.89,3-105C1125.28,737.75,1114.61,704.09,1110,705Z" transform="translate(-620 -277.03)"/><path class="cls-21" d="M814,681c4.13-.42,6.82-20.17,4-38-2-12.88-7.86-30.5-12-30-5.08.61-7.82,28.59,0,53C807.51,670.71,810.9,681.31,814,681Z" transform="translate(-620 -277.03)"/><path class="cls-21" d="M1135.49,547.91s-28.68,36-23.58,50.05c0,0,16.36-15,20.73-29S1135.49,547.91,1135.49,547.91Z" transform="translate(-620 -277.03)"/><path class="cls-21" d="M762.52,725S669,731,634,798c0,0,125.14-82,109.57-36.5Z" transform="translate(-620 -277.03)"/><path class="cls-21" d="M1158.14,692s20.59-44,69.72-34.5c0,0,10.14-11.5,14.14-5.5,0,0-43.74,25.92-60.37,32.46Z" transform="translate(-620 -277.03)"/><path class="cls-22" d="M969.52,303.61C917,255.22,903,288.5,903,288.5s19.26-17.5,38.63,0Z" transform="translate(-620 -277.03)"/><path class="cls-1" d="M889.94,306.89" transform="translate(-620 -277.03)"/><path class="cls-22" d="M887,306s21,3,21,6l-11.5-1.32s30,8.84,31.24,16.58l-21.24,5.05S901,311.26,875,305.63V304s31.1-4.59,41-6" transform="translate(-620 -277.03)"/><path class="cls-22" d="M958,311s12,5.57,13.5,12.28L973,326c-1-13-21-25-21-25" transform="translate(-620 -277.03)"/><path class="cls-22" d="M985,376s-8-57-29-64l-3,2s25,29.37,20,44.68" transform="translate(-620 -277.03)"/><path class="cls-1" d="M979,373" transform="translate(-620 -277.03)"/><path class="cls-22" d="M969.43,382.43c-5.44-102.79-53.09-75.29-53.09-75.29s37.24-4.22,39.6,33.29Z" transform="translate(-620 -277.03)"/><path class="cls-23" d="M964.1,367.29c-4.29-81.17-41.92-59.46-41.92-59.46s29.41-3.33,31.28,26.29Z" transform="translate(-620 -277.03)"/><path class="cls-23" d="M886.06,306.36s12.34,1.77,12.34,3.53l-6.76-.77s17.63,5.19,18.37,9.74l-12.49,3s-3.23-12.38-18.52-15.69v-1s18.29-2.7,24.11-3.53" transform="translate(-620 -277.03)"/><path class="cls-23" d="M830.81,352.18s-21.9,15.48-2.36,47.65L832,407s-14.38-29-1.19-34Z" transform="translate(-620 -277.03)"/><path class="cls-22" d="M1030.3,367.29c20.3-45.71-48.3-56.86-48.3-56.86s54.6,26.95,48.3,48.76S1030.3,367.29,1030.3,367.29Z" transform="translate(-620 -277.03)"/><path class="cls-24" d="M919.21,512.2a188.35,188.35,0,0,0,27.28-.82c3-.27,6-.56,9-.66,10.13-.32,20.54,1.57,30.26-1.32" transform="translate(-620 -277.03)"/></svg>